<svg width="28" height="28" viewBox="0 0 28 28" fill="none" xmlns="http://www.w3.org/2000/svg">
  <defs>
    <linearGradient id="g-thermal" x1="4" y1="4" x2="24" y2="24" gradientUnits="userSpaceOnUse">
      <stop stop-color="#F59E0B"/>
      <stop offset="1" stop-color="#FB7185"/>
    </linearGradient>
  </defs>
  <rect x="2" y="2" width="24" height="24" rx="8" fill="url(#g-thermal)"/>
  <path d="M11 8.5C11 7.67 11.67 7 12.5 7C13.33 7 14 7.67 14 8.5V14.18C14.9 14.7 15.5 15.67 15.5 16.8C15.5 18.46 14.16 19.8 12.5 19.8C10.84 19.8 9.5 18.46 9.5 16.8C9.5 15.67 10.1 14.7 11 14.18V8.5Z" fill="white" fill-opacity="0.95"/>
  <path d="M17.2 10.6C17.9 11.3 18.3 12.2 18.3 13.2C18.3 14.2 17.9 15.1 17.2 15.8" stroke="white" stroke-opacity="0.9" stroke-width="1.4" stroke-linecap="round"/>
  <path d="M19.3 8.5C20.5 9.7 21.2 11.4 21.2 13.2C21.2 15 20.5 16.7 19.3 17.9" stroke="white" stroke-opacity="0.75" stroke-width="1.4" stroke-linecap="round"/>
</svg>
